PathFileType	4	(X/Y/Z)	/home/nbianco/projects/addbio/data/OpenCap2022/Processed/subject10//results/MarkerData/DJ2.trc
DataRate	CameraRate	NumFrames	NumMarkers	Units	OrigDataRate	OrigDataStartFrame	OrigNumFrames
100	100	8	51	m	100	0	124
Frame#	Time	C7			L.ASIS			L.PSIS			L_5meta			L_HJC			L_HJC_reg			L_Shoulder			L_Sternum			L_ankle			L_calc			L_elbow_lat			L_elbow_med			L_forearm			L_humerus			L_knee			L_sh2			L_sh3			L_shank_antsup			L_thigh1			L_thigh2			L_thigh3			L_thigh4			L_toe			L_wrist_radius			L_wrist_ulna			R_HJC			R_HJC_reg			R_Shoulder			R_Sternum			R_elbow_lat			R_elbow_med			R_forearm			R_humerus			R_wrist_radius			R_wrist_ulna			r.ASIS			r.PSIS			r_5meta			r_ankle			r_calc			r_knee			r_sh2			r_sh3			r_sh4			r_shank_antsup			r_thigh1			r_thigh2			r_thigh3			r_thigh4			r_thigh5			r_toe		
		X1	Y1	Z1	X2	Y2	Z2	X3	Y3	Z3	X4	Y4	Z4	X5	Y5	Z5	X6	Y6	Z6	X7	Y7	Z7	X8	Y8	Z8	X9	Y9	Z9	X10	Y10	Z10	X11	Y11	Z11	X12	Y12	Z12	X13	Y13	Z13	X14	Y14	Z14	X15	Y15	Z15	X16	Y16	Z16	X17	Y17	Z17	X18	Y18	Z18	X19	Y19	Z19	X20	Y20	Z20	X21	Y21	Z21	X22	Y22	Z22	X23	Y23	Z23	X24	Y24	Z24	X25	Y25	Z25	X26	Y26	Z26	X27	Y27	Z27	X28	Y28	Z28	X29	Y29	Z29	X30	Y30	Z30	X31	Y31	Z31	X32	Y32	Z32	X33	Y33	Z33	X34	Y34	Z34	X35	Y35	Z35	X36	Y36	Z36	X37	Y37	Z37	X38	Y38	Z38	X39	Y39	Z39	X40	Y40	Z40	X41	Y41	Z41	X42	Y42	Z42	X43	Y43	Z43	X44	Y44	Z44	X45	Y45	Z45	X46	Y46	Z46	X47	Y47	Z47	X48	Y48	Z48	X49	Y49	Z49	X50	Y50	Z50	X51	Y51	Z51

1	1.29	-0.374266	1.3335	-0.622559	-0.470186	0.872414	-0.724245	-0.642688	0.918575	-0.64737	-0.22552	0.0636543	-0.804579	-0.539496	0.811061	-0.694692	-0.542442	0.805158	-0.665784	-0.338413	1.28342	-0.753482	-0.290038	1.21499	-0.644893	-0.327609	0.10119	-0.78901	-0.390053	0.055703	-0.742613	-0.370726	1.07455	-1.01154	-0.405826	1.02792	-0.968002	-0.281175	1.07026	-0.941787	-0.320229	1.20794	-0.850422	-0.342091	0.482478	-0.785469	-0.391719	0.42726	-0.810511	-0.386755	0.305513	-0.821455	-0.303275	0.419003	-0.796199	-0.438966	0.757716	-0.778776	-0.363053	0.641958	-0.790066	-0.537905	0.695632	-0.78561	-0.453202	0.58107	-0.792525	-0.186021	0.105062	-0.755406	-0.189617	1.01932	-0.870711	-0.205467	1.04087	-0.850098	-0.532025	0.815605	-0.502727	-0.534609	0.818161	-0.494909	-0.342799	1.29112	-0.495318	-0.288257	1.21688	-0.601769	-0.429395	1.15301	-0.219832	-0.462839	1.0837	-0.255549	-0.337762	1.13814	-0.286498	-0.397214	1.19547	-0.292362	-0.254572	1.1093	-0.358647	-0.235079	1.09054	-0.323376	-0.459785	0.884448	-0.477182	-0.635862	0.925208	-0.541953	-0.201071	0.0768359	-0.404488	-0.315684	0.103245	-0.419898	-0.37199	0.0530532	-0.459484	-0.32841	0.490031	-0.430407	-0.30905	0.306408	-0.39077	-0.383506	0.41634	-0.415128	-0.389727	0.300575	-0.406906	-0.309844	0.419134	-0.402123	-0.419795	0.791969	-0.459615	-0.357422	0.698774	-0.444781	-0.38555	0.659118	-0.397724	-0.501794	0.746408	-0.393598	-0.44057	0.646464	-0.393194	-0.171658	0.118333	-0.456534
2	1.3	-0.364107	1.30515	-0.622826	-0.461883	0.843646	-0.724673	-0.635935	0.889417	-0.648134	-0.215656	0.0468248	-0.802933	-0.531713	0.782198	-0.694995	-0.534296	0.776109	-0.66604	-0.328427	1.25397	-0.754635	-0.279799	1.18633	-0.645674	-0.313654	0.0867663	-0.785012	-0.380245	0.0526276	-0.738614	-0.357564	1.04234	-1.01081	-0.39146	0.995225	-0.966658	-0.267137	1.04149	-0.942108	-0.309121	1.17689	-0.850451	-0.325956	0.458301	-0.787573	-0.373046	0.402825	-0.812815	-0.367162	0.281297	-0.821353	-0.284319	0.395796	-0.797604	-0.42897	0.730517	-0.778523	-0.350111	0.616413	-0.791408	-0.527017	0.666803	-0.785114	-0.439806	0.553943	-0.792728	-0.172199	0.0812573	-0.751109	-0.189189	1.01456	-0.851901	-0.175584	0.995326	-0.868788	-0.526757	0.789393	-0.495788	-0.524466	0.787354	-0.502368	-0.331727	1.26134	-0.496058	-0.277958	1.1879	-0.603023	-0.413707	1.1189	-0.221045	-0.444698	1.04884	-0.256718	-0.321104	1.10692	-0.286974	-0.383273	1.16168	-0.293327	-0.236972	1.08087	-0.358943	-0.216875	1.0628	-0.32345	-0.45161	0.855834	-0.477541	-0.629333	0.896542	-0.541998	-0.189513	0.0543606	-0.402907	-0.298272	0.0848334	-0.422483	-0.360603	0.0488909	-0.461544	-0.315248	0.464302	-0.430017	-0.291447	0.281194	-0.39311	-0.368606	0.390718	-0.413508	-0.372855	0.274698	-0.406559	-0.294312	0.394645	-0.401738	-0.410305	0.764082	-0.460517	-0.347333	0.670844	-0.445325	-0.37533	0.631535	-0.398138	-0.491906	0.719165	-0.392772	-0.430505	0.618904	-0.392868	-0.154473	0.0888718	-0.456256
3	1.31	-0.354183	1.27611	-0.623289	-0.456076	0.814314	-0.724426	-0.631987	0.861601	-0.649371	-0.211617	0.0410573	-0.801798	-0.527877	0.753699	-0.695366	-0.530515	0.747893	-0.665264	-0.318472	1.22518	-0.756208	-0.269133	1.15793	-0.646577	-0.306667	0.0845479	-0.780968	-0.376721	0.0543804	-0.735585	-0.343166	1.00979	-1.00947	-0.375341	0.961882	-0.964587	-0.251745	1.0124	-0.941768	-0.297459	1.14515	-0.850652	-0.302011	0.447222	-0.791012	-0.348208	0.392672	-0.815127	-0.345445	0.270874	-0.817457	-0.259849	0.384358	-0.799184	-0.420484	0.707147	-0.780614	-0.334241	0.599847	-0.792566	-0.515966	0.638471	-0.783128	-0.42126	0.53292	-0.792128	-0.164982	0.0685394	-0.74696	-0.175784	0.993552	-0.847978	-0.155991	0.965983	-0.871789	-0.523927	0.761759	-0.49473	-0.520751	0.761028	-0.504257	-0.320951	1.23176	-0.496463	-0.26716	1.15917	-0.603588	-0.396423	1.08388	-0.222738	-0.424761	1.01263	-0.258309	-0.302669	1.07502	-0.287588	-0.368524	1.1265	-0.294102	-0.217719	1.05231	-0.359285	-0.197067	1.03468	-0.323676	-0.447046	0.82639	-0.478839	-0.625627	0.870472	-0.542106	-0.183757	0.0444358	-0.404527	-0.287541	0.0803124	-0.427313	-0.355732	0.0509175	-0.464067	-0.29438	0.451822	-0.430834	-0.270127	0.269524	-0.39594	-0.346567	0.380389	-0.41387	-0.351591	0.263981	-0.409809	-0.272112	0.383271	-0.403215	-0.403625	0.741116	-0.462057	-0.336149	0.650902	-0.445631	-0.363127	0.611051	-0.398333	-0.482859	0.695042	-0.392375	-0.418163	0.596775	-0.393163	-0.144172	0.0704286	-0.460208
4	1.32	-0.344117	1.24638	-0.62388	-0.452099	0.785553	-0.724027	-0.629573	0.835979	-0.650889	-0.210704	0.0418656	-0.801496	-0.526747	0.726551	-0.695778	-0.530174	0.721217	-0.663929	-0.308082	1.19677	-0.757724	-0.258079	1.12952	-0.647392	-0.30374	0.089671	-0.778984	-0.376338	0.0572357	-0.734432	-0.327694	0.97719	-1.00759	-0.357497	0.928266	-0.961611	-0.235323	0.983372	-0.94054	-0.28523	1.11359	-0.851116	-0.270618	0.44994	-0.792736	-0.318188	0.398722	-0.816267	-0.323866	0.276632	-0.813891	-0.231366	0.384824	-0.79932	-0.413652	0.691567	-0.782957	-0.317008	0.595233	-0.792116	-0.503639	0.614837	-0.781648	-0.397932	0.520948	-0.792251	-0.16265	0.0654472	-0.744899	-0.157872	0.967739	-0.848346	-0.139022	0.942296	-0.869617	-0.523809	0.73511	-0.495554	-0.521111	0.738151	-0.504096	-0.310061	1.20271	-0.496331	-0.256041	1.1305	-0.603634	-0.377675	1.0485	-0.224857	-0.403252	0.975818	-0.260493	-0.282634	1.04296	-0.288652	-0.352739	1.09099	-0.2948	-0.196985	1.02398	-0.359739	-0.17585	1.00627	-0.3244	-0.445532	0.797559	-0.480251	-0.623485	0.847466	-0.542785	-0.181553	0.0442616	-0.408538	-0.28331	0.0866716	-0.430647	-0.354817	0.0550753	-0.464871	-0.264997	0.454558	-0.433893	-0.24712	0.273026	-0.39854	-0.316966	0.387576	-0.415817	-0.328134	0.27153	-0.413328	-0.243038	0.386063	-0.406295	-0.400593	0.72595	-0.464869	-0.324748	0.643235	-0.447644	-0.347771	0.601976	-0.399586	-0.473714	0.676048	-0.392466	-0.401556	0.583501	-0.394179	-0.140716	0.0648717	-0.466029
5	1.33	-0.33353	1.21645	-0.624402	-0.448197	0.75906	-0.724668	-0.626463	0.813019	-0.652337	-0.209504	0.0427652	-0.80228	-0.525318	0.701814	-0.696254	-0.530079	0.696368	-0.663634	-0.296893	1.16794	-0.758726	-0.247153	1.10056	-0.647935	-0.300214	0.0946256	-0.779343	-0.374746	0.0590647	-0.7341	-0.311213	0.944789	-1.00558	-0.338157	0.894781	-0.95828	-0.218342	0.954977	-0.938452	-0.272602	1.08318	-0.851725	-0.238555	0.458852	-0.790581	-0.288626	0.41285	-0.81479	-0.305615	0.291692	-0.814375	-0.203966	0.390633	-0.797346	-0.408773	0.684383	-0.781682	-0.302385	0.599102	-0.789328	-0.490037	0.598961	-0.783672	-0.374275	0.516734	-0.795072	-0.160815	0.0658515	-0.746149	-0.140083	0.943215	-0.847665	-0.1212	0.919259	-0.867461	-0.524015	0.71095	-0.496271	-0.521756	0.716401	-0.503446	-0.298807	1.17368	-0.49607	-0.24523	1.1014	-0.603524	-0.357642	1.01329	-0.227146	-0.380392	0.939388	-0.26305	-0.261423	1.01138	-0.290387	-0.335721	1.0565	-0.295736	-0.175197	0.996399	-0.360588	-0.153613	0.978066	-0.325961	-0.444772	0.771401	-0.480235	-0.620827	0.826487	-0.544284	-0.178434	0.0461721	-0.411333	-0.280753	0.0952731	-0.429775	-0.352559	0.0581352	-0.463477	-0.232482	0.466255	-0.438563	-0.227297	0.284677	-0.401518	-0.285447	0.404738	-0.41883	-0.307825	0.290484	-0.413907	-0.212597	0.396173	-0.409656	-0.401661	0.717425	-0.469398	-0.31595	0.646094	-0.453248	-0.331116	0.603787	-0.403327	-0.464245	0.662425	-0.392785	-0.381915	0.579183	-0.395445	-0.138817	0.066866	-0.468877
6	1.34	-0.322447	1.18722	-0.62484	-0.443116	0.73566	-0.72696	-0.621702	0.791916	-0.653495	-0.207156	0.0420916	-0.803489	-0.521274	0.679473	-0.696754	-0.527171	0.672824	-0.665572	-0.285124	1.13833	-0.759352	-0.236925	1.07078	-0.648313	-0.295224	0.0961913	-0.779496	-0.371058	0.0600512	-0.732745	-0.293591	0.912763	-1.0039	-0.317683	0.861662	-0.955675	-0.201067	0.927524	-0.936025	-0.259872	1.05381	-0.852049	-0.214654	0.462468	-0.788007	-0.265761	0.420448	-0.811916	-0.291262	0.301538	-0.816826	-0.182463	0.392142	-0.795202	-0.405784	0.67898	-0.776232	-0.292686	0.601598	-0.786124	-0.477465	0.587171	-0.788967	-0.355666	0.51328	-0.799734	-0.157219	0.0651967	-0.748777	-0.122938	0.920463	-0.845763	-0.102714	0.896841	-0.86555	-0.521896	0.689027	-0.496749	-0.519779	0.693227	-0.502379	-0.287177	1.14406	-0.496088	-0.235332	1.07153	-0.603554	-0.336482	0.978475	-0.229277	-0.356346	0.903855	-0.265381	-0.23954	0.980632	-0.292571	-0.317712	1.02339	-0.297111	-0.152941	0.969998	-0.362167	-0.130837	0.950839	-0.328425	-0.442537	0.748933	-0.477967	-0.616819	0.805326	-0.546271	-0.171869	0.0456719	-0.410255	-0.273918	0.0987338	-0.427114	-0.345676	0.0593564	-0.462548	-0.205945	0.474632	-0.441861	-0.21268	0.292738	-0.404103	-0.260916	0.417342	-0.422647	-0.293064	0.305174	-0.412724	-0.188916	0.403013	-0.412417	-0.405423	0.709001	-0.474695	-0.311657	0.649275	-0.460621	-0.318025	0.607549	-0.408295	-0.456417	0.650285	-0.393089	-0.364916	0.577221	-0.396105	-0.132515	0.0684224	-0.466834
7	1.35	-0.311258	1.15938	-0.625262	-0.437144	0.714679	-0.729948	-0.616149	0.771163	-0.654305	-0.205134	0.0416302	-0.804071	-0.514834	0.658469	-0.697151	-0.521227	0.650052	-0.668874	-0.273228	1.10878	-0.760113	-0.227402	1.04058	-0.648673	-0.291655	0.0957194	-0.777941	-0.367785	0.0603016	-0.730593	-0.274842	0.881424	-1.0025	-0.296319	0.82916	-0.953903	-0.183436	0.901067	-0.9338	-0.247151	1.0246	-0.851874	-0.20067	0.456294	-0.789022	-0.250182	0.415463	-0.811513	-0.279243	0.298284	-0.818468	-0.167334	0.385072	-0.795085	-0.403473	0.668344	-0.771209	-0.286195	0.596258	-0.785247	-0.467973	0.573086	-0.793735	-0.343114	0.504632	-0.802791	-0.153821	0.0638294	-0.750108	-0.105867	0.89873	-0.843509	-0.0841456	0.875566	-0.863414	-0.517252	0.668291	-0.497115	-0.514928	0.668404	-0.501118	-0.275094	1.1147	-0.49577	-0.226408	1.04123	-0.603808	-0.314495	0.944375	-0.231197	-0.331395	0.869471	-0.267496	-0.217337	0.950955	-0.294826	-0.299298	0.991242	-0.298799	-0.130793	0.945076	-0.364555	-0.107988	0.925067	-0.331803	-0.438646	0.729358	-0.474479	-0.612161	0.782794	-0.548397	-0.163997	0.0443869	-0.407126	-0.263204	0.0968993	-0.426766	-0.336455	0.0591563	-0.464201	-0.189821	0.472347	-0.441852	-0.200317	0.291707	-0.403328	-0.246232	0.417235	-0.425617	-0.280777	0.305746	-0.412495	-0.174252	0.40168	-0.414306	-0.408297	0.695766	-0.478337	-0.309845	0.64444	-0.464831	-0.310828	0.603905	-0.410981	-0.451922	0.634715	-0.393442	-0.354564	0.569727	-0.39603	-0.122827	0.0672305	-0.462998
8	1.36	-0.300227	1.13306	-0.625499	-0.431267	0.694827	-0.732045	-0.610871	0.749943	-0.654864	-0.204561	0.0418239	-0.803994	-0.507789	0.637824	-0.697592	-0.514236	0.628186	-0.671662	-0.261412	1.0806	-0.761402	-0.218313	1.01074	-0.648888	-0.29105	0.0948705	-0.775922	-0.366737	0.0598305	-0.729163	-0.25546	0.851185	-1.00075	-0.274242	0.797807	-0.951805	-0.165414	0.875751	-0.931749	-0.234379	0.995864	-0.851467	-0.191571	0.444138	-0.792194	-0.238481	0.403577	-0.815699	-0.269359	0.28657	-0.819685	-0.156388	0.372393	-0.797166	-0.400251	0.651673	-0.771116	-0.280082	0.584068	-0.787447	-0.460916	0.554401	-0.794962	-0.333717	0.49027	-0.802382	-0.152681	0.0630746	-0.749917	-0.0884462	0.877907	-0.841303	-0.0655326	0.855455	-0.861008	-0.5117	0.647765	-0.497575	-0.508888	0.64397	-0.500516	-0.262425	1.08695	-0.494392	-0.218081	1.01121	-0.604134	-0.29211	0.911567	-0.233271	-0.305957	0.836774	-0.270321	-0.195103	0.922802	-0.297233	-0.280938	0.960117	-0.300646	-0.109177	0.921824	-0.367711	-0.0854605	0.900918	-0.336184	-0.434287	0.710631	-0.471984	-0.607617	0.759566	-0.550608	-0.158885	0.0443304	-0.405235	-0.255009	0.0941944	-0.429461	-0.330005	0.0584746	-0.467373	-0.181418	0.461144	-0.439756	-0.188498	0.283013	-0.400141	-0.23694	0.407112	-0.425103	-0.26887	0.295154	-0.413802	-0.164592	0.393149	-0.414003	-0.407061	0.678627	-0.477591	-0.306743	0.63168	-0.462297	-0.307098	0.590329	-0.409335	-0.449535	0.614129	-0.393983	-0.349393	0.553871	-0.396236	-0.115611	0.0651804	-0.461034
